<?xml version="1.0" encoding="UTF-8" standalone="no"?>
<!-- Created with Inkscape (http://www.inkscape.org/) -->

<svg
   xmlns:dc="http://purl.org/dc/elements/1.1/"
   xmlns:cc="http://creativecommons.org/ns#"
   xmlns:rdf="http://www.w3.org/1999/02/22-rdf-syntax-ns#"
   xmlns:svg="http://www.w3.org/2000/svg"
   xmlns="http://www.w3.org/2000/svg"
   xmlns:sodipodi="http://sodipodi.sourceforge.net/DTD/sodipodi-0.dtd"
   xmlns:inkscape="http://www.inkscape.org/namespaces/inkscape"
   width="22.662001mm"
   height="21.72439mm"
   viewBox="0 0 22.662 21.72439"
   version="1.1"
   id="svg8"
   inkscape:version="0.92.5 (2060ec1f9f, 2020-04-08)"
   sodipodi:docname="coralleno.svg">
  <defs
     id="defs2" />
  <sodipodi:namedview
     id="base"
     pagecolor="#ffffff"
     bordercolor="#666666"
     borderopacity="1.0"
     inkscape:pageopacity="0.0"
     inkscape:pageshadow="2"
     inkscape:zoom="1"
     inkscape:cx="44.285225"
     inkscape:cy="32.914374"
     inkscape:document-units="mm"
     inkscape:current-layer="layer1"
     showgrid="false"
     inkscape:window-width="1920"
     inkscape:window-height="1006"
     inkscape:window-x="0"
     inkscape:window-y="0"
     inkscape:window-maximized="1"
     fit-margin-top="0"
     fit-margin-left="0"
     fit-margin-right="0"
     fit-margin-bottom="0" />
  <metadata
     id="metadata5">
    <rdf:RDF>
      <cc:Work
         rdf:about="">
        <dc:format>image/svg+xml</dc:format>
        <dc:type
           rdf:resource="http://purl.org/dc/dcmitype/StillImage" />
        <dc:title></dc:title>
      </cc:Work>
    </rdf:RDF>
  </metadata>
  <g
     inkscape:label="Layer 1"
     inkscape:groupmode="layer"
     id="layer1"
     transform="translate(1.1337997,-9.2511461)">
    <path
       style="fill:#ff0000;stroke:#ff0000;stroke-width:1.765;stroke-linecap:butt;stroke-linejoin:miter;stroke-miterlimit:4;stroke-dasharray:none;stroke-opacity:1"
       d="m 9.4883937,29.984044 c -1.206992,0.335484 -0.235363,-0.329857 -0.377976,-0.47247 -0.02228,-0.02227 -0.07222,0.02227 -0.09449,0 -0.02228,-0.02227 0.02228,-0.07222 0,-0.09449 -0.02228,-0.02227 -0.06632,0.01409 -0.0945,0 -0.09298,-0.04649 -0.28499,-0.331484 -0.377976,-0.377976 -0.02817,-0.01409 -0.07222,0.02227 -0.09449,0 -0.02228,-0.02227 0.02228,-0.07222 0,-0.09449 -0.02228,-0.02227 -0.07222,0.02227 -0.09449,0 -0.02228,-0.02227 0.01408,-0.06632 0,-0.09449 -0.02524,-0.05047 -0.233736,-0.233735 -0.283483,-0.283483 -0.0315,-0.0315 -0.063,-0.063 -0.0945,-0.09449 -0.0315,-0.0315 -0.05465,-0.07457 -0.09449,-0.09449 -0.02817,-0.01409 -0.07222,0.02227 -0.09449,0 -0.02228,-0.02227 0.02228,-0.07222 0,-0.09449 -0.02228,-0.02227 -0.07222,0.02227 -0.09449,0 -0.02228,-0.02227 0.02228,-0.07222 0,-0.09449 -0.02228,-0.02227 -0.07222,0.02227 -0.0945,0 -0.02228,-0.02227 0.02228,-0.07222 0,-0.09449 -0.02228,-0.02227 -0.07222,0.02227 -0.09449,0 -0.02228,-0.02227 0.02228,-0.07222 0,-0.09449 -0.02228,-0.02227 -0.07222,0.02227 -0.09449,0 -0.26607,-0.0059 -0.02405,-0.21305 -0.0945,-0.283482 -0.02228,-0.02227 -0.07222,0.02227 -0.09449,0 -0.02228,-0.02227 0.02228,-0.07222 0,-0.09449 -0.02228,-0.02227 -0.07222,0.02227 -0.09449,0 0,-0.251984 0.0315,0.0315 -0.09449,-0.09449 -0.02228,-0.02227 0.02817,-0.08041 0,-0.09449 -0.05635,-0.02817 -0.132643,0.02817 -0.188989,0 -0.02817,-0.01409 0.02228,-0.07222 0,-0.09449 -0.02228,-0.02227 -0.07222,0.02227 -0.09449,0 -0.02228,-0.02227 0.02228,-0.07222 0,-0.09449 -0.02228,-0.02227 -0.07222,0.02227 -0.0945,0 -0.02228,-0.02227 0.02228,-0.07222 0,-0.09449 -0.02228,-0.02227 -0.07222,0.02227 -0.09449,0 -0.04454,-0.04454 0.04455,-0.144444 0,-0.188988 -0.02228,-0.02227 -0.07222,0.02227 -0.09449,0 -0.02228,-0.02227 0.02228,-0.07222 0,-0.09449 -0.02228,-0.02227 -0.07222,0.02227 -0.09449,0 -0.04454,-0.04454 0.04454,-0.144444 0,-0.188989 -0.02228,-0.02227 -0.07222,0.02227 -0.0945,0 -0.02228,-0.02227 0.01408,-0.06632 0,-0.09449 -0.01992,-0.03984 -0.063,-0.063 -0.09449,-0.09449 -0.0315,-0.0315 -0.05465,-0.07457 -0.09449,-0.09449 -0.02817,-0.01409 -0.07222,0.02227 -0.0945,0 -0.04454,-0.04455 0.02817,-0.132642 0,-0.188988 -0.01992,-0.03984 -0.07457,-0.05465 -0.09449,-0.09449 -0.01408,-0.02817 0.02228,-0.07222 0,-0.09449 -0.02228,-0.02227 -0.07222,0.02227 -0.09449,0 -0.04725,-0.04725 0.04725,-0.236235 0,-0.283482 -0.02228,-0.02227 -0.06632,0.01409 -0.09449,0 -0.03984,-0.01992 -0.063,-0.063 -0.0945,-0.09449 -0.0315,-0.0315 -0.07457,-0.05465 -0.09449,-0.09449 -0.01408,-0.02817 0.02228,-0.07222 0,-0.09449 -0.02228,-0.02227 -0.07222,0.02227 -0.09449,0 -0.02228,-0.02227 0.01408,-0.06632 0,-0.09449 -0.01992,-0.03984 -0.07457,-0.05465 -0.0945,-0.09449 -0.01408,-0.02817 0.02228,-0.07222 0,-0.09449 -0.02228,-0.02227 -0.06632,0.01409 -0.09449,0 -0.07969,-0.03984 -0.109302,-0.149146 -0.188987,-0.188988 -0.02817,-0.01409 -0.07222,0.02227 -0.0945,0 -0.02228,-0.02227 0.02228,-0.07222 0,-0.09449 -0.02228,-0.02227 -0.07222,0.02227 -0.09449,0 -0.02228,-0.02227 0.02228,-0.07222 0,-0.09449 -0.02228,-0.02227 -0.07222,0.02227 -0.09449,0 -0.02228,-0.02227 0.02228,-0.07222 0,-0.09449 -0.02228,-0.02227 -0.07222,0.02227 -0.0945,0 -0.02228,-0.02227 0.02228,-0.07222 0,-0.09449 -0.02228,-0.02227 -0.07222,0.02227 -0.09449,0 0,-0.251984 0.0315,0.0315 -0.09449,-0.09449 -0.02228,-0.02227 0.02228,-0.07222 0,-0.09449 -0.251984,0 0.0315,0.0315 -0.09449,-0.09449 -0.02228,-0.02227 -0.07222,0.02227 -0.0945,0 -0.02228,-0.02227 0.02228,-0.07222 0,-0.09449 -0.02228,-0.02227 -0.07222,0.02227 -0.09449,0 -0.02228,-0.02227 0.02228,-0.07222 0,-0.09449 -0.02228,-0.02227 -0.07222,0.02227 -0.09449,0 -0.02228,-0.02227 0.02228,-0.07222 0,-0.09449 -0.02228,-0.02227 -0.07222,0.02227 -0.0945,0 -0.02228,-0.02227 0.02228,-0.07222 0,-0.09449 -0.02228,-0.02227 -0.07222,0.02227 -0.09449,0 -0.02228,-0.02227 0.02228,-0.07222 0,-0.09449 -0.02228,-0.02227 -0.07222,0.02227 -0.09449,0 -0.02228,-0.02227 0.02228,-0.07222 0,-0.09449 -0.02228,-0.02227 -0.07222,0.02227 -0.09449,0 -0.02228,-0.02227 0.02228,-0.07222 0,-0.09449 -0.02228,-0.02227 -0.07222,0.02227 -0.0945,0 -0.04455,-0.04454 0.04454,-0.144443 0,-0.188988 -0.02228,-0.02227 -0.07222,0.02227 -0.09449,0 -0.02227,-0.02227 0.02228,-0.07222 0,-0.09449 -0.02227,-0.02227 -0.07222,0.02227 -0.09449,0 -0.02227,-0.02227 0.01409,-0.06632 0,-0.09449 -0.01992,-0.03984 -0.07457,-0.05465 -0.09449,-0.09449 -0.01409,-0.02817 0.02227,-0.07222 0,-0.09449 -0.02227,-0.02227 -0.06632,0.01409 -0.09449,0 -0.393261,-0.196631 0.101018,0.0065 -0.09449,-0.188988 -0.02227,-0.02227 -0.07222,0.02227 -0.09449,0 -0.02227,-0.02227 0.02227,-0.07222 0,-0.09449 -0.02227,-0.02227 -0.07222,0.02227 -0.09449,0 -0.04725,-0.04725 0.04725,-0.236236 0,-0.283483 -0.02227,-0.02227 -0.07222,0.02227 -0.09449,0 -0.02227,-0.02227 0.01409,-0.06632 0,-0.09449 -0.03984,-0.07968 -0.149146,-0.109303 -0.188988,-0.188988 -0.01409,-0.02817 0.01409,-0.06632 0,-0.09449 -0.01992,-0.03984 -0.07457,-0.05465 -0.09449,-0.09449 -0.01409,-0.02817 0.02227,-0.07222 0,-0.09449 -0.02227,-0.02227 -0.07222,0.02227 -0.09449,0 -0.04454,-0.04454 0.02817,-0.132643 0,-0.188988 -0.03984,-0.07968 -0.149146,-0.109304 -0.188988,-0.188988 -0.01409,-0.02817 0.02227,-0.07222 0,-0.09449 -0.02227,-0.02227 -0.08041,0.02817 -0.09449,0 -0.02817,-0.05635 0,-0.125992 0,-0.188988 0,-0.0315 0.02227,-0.07222 0,-0.09449 -0.02227,-0.02227 -0.07222,0.02227 -0.09449,0 -0.02227,-0.02227 0.01409,-0.06632 0,-0.09449 -0.01992,-0.03984 -0.07457,-0.05465 -0.09449,-0.09449 -0.02817,-0.05635 0.04454,-0.144443 0,-0.188988 -0.02227,-0.02227 -0.07222,0.02227 -0.09449,0 -0.02227,-0.02227 0.01409,-0.06632 0,-0.09449 -0.01992,-0.03984 -0.07457,-0.05465 -0.09449,-0.09449 -0.02817,-0.05635 0.04454,-0.144443 0,-0.188988 -0.02227,-0.02227 -0.07222,0.02227 -0.09449,0 -0.02227,-0.02227 0.02227,-0.07222 0,-0.09449 -0.02227,-0.02227 -0.07222,0.02227 -0.09449,0 -0.04454,-0.04454 0.02817,-0.132642 0,-0.188988 -0.01992,-0.03984 -0.07457,-0.05465 -0.09449,-0.09449 -0.01409,-0.02817 0.02227,-0.07222 0,-0.09449 -0.02227,-0.02227 -0.07222,0.02227 -0.09449,0 -0.04454,-0.04454 0.02817,-0.132643 0,-0.188988 -0.03984,-0.07968 -0.149146,-0.109304 -0.188988,-0.188988 -0.02817,-0.05635 0.04454,-0.144443 0,-0.188988 -0.02227,-0.02227 -0.07222,0.02227 -0.09449,0 -0.04454,-0.04454 0.04454,-0.144443 0,-0.188988 -0.02227,-0.02227 -0.07222,0.02227 -0.09449,0 -0.06902,-0.06902 0.06902,-0.119967 0,-0.188988 -0.02227,-0.02227 -0.07222,0.02227 -0.09449,0 -0.02227,-0.02227 0.02227,-0.07222 0,-0.09449 -0.02227,-0.02227 -0.07222,0.02227 -0.09449,0 -0.02227,-0.02227 0.02227,-0.07222 0,-0.09449 -0.0498,-0.0498 -0.14992,-0.03589 -0.188988,-0.09449 -0.03494,-0.05242 0.01992,-0.129225 0,-0.188989 -0.01409,-0.04226 -0.07457,-0.05465 -0.09449,-0.09449 -0.02817,-0.05635 0.04455,-0.144443 0,-0.188988 -0.02227,-0.02227 -0.07222,0.02227 -0.09449,0 -0.02227,-0.02227 0.02227,-0.07222 0,-0.09449 -0.02227,-0.02227 -0.07222,0.02227 -0.09449,0 -0.04454,-0.04454 0.04454,-0.144443 0,-0.188988 -0.02227,-0.02227 -0.07222,0.02227 -0.09449,0 -0.04454,-0.04454 0.04454,-0.144443 0,-0.188988 -0.02227,-0.02227 -0.07222,0.02227 -0.09449,0 -0.04455,-0.04454 0.04454,-0.144443 0,-0.188988 -0.02227,-0.02227 -0.07222,0.02227 -0.09449,0 -0.04454,-0.04454 0.04454,-0.144443 0,-0.188988 -0.02227,-0.02227 -0.07222,0.02227 -0.09449,0 -0.04454,-0.04454 0.04454,-0.144443 0,-0.188988 -0.02227,-0.02227 -0.07222,0.02227 -0.09449,0 -0.04454,-0.04454 0.02817,-0.132643 0,-0.188988 -0.01992,-0.03984 -0.07457,-0.05465 -0.09449,-0.09449 -0.01438,-0.02876 0,-0.240926 0,-0.283483 0,-0.188988 0,-0.377976 0,-0.566964 0,-0.251984 0.0315,0.0315 -0.09449,-0.09449 -0.02227,-0.02227 0,-0.063 0,-0.09449 0,-0.0315 0,-0.063 0,-0.09449 0,-0.283482 0,-0.566964 0,-0.850446 0,-0.188988 0,-0.377977 0,-0.566964 0,-0.02246 -0.01059,-0.356798 0,-0.377977 0.01992,-0.03984 0.07457,-0.05465 0.09449,-0.09449 0.0297,-0.05939 -0.0297,-0.318584 0,-0.377976 0.01992,-0.03984 0.07457,-0.05465 0.09449,-0.09449 0.02563,-0.05126 -0.02585,-0.352121 0,-0.377976 0.02227,-0.02227 0.07222,0.02227 0.09449,0 0.02227,-0.02227 0,-0.063 0,-0.09449 0,-0.04455 -0.0043,-0.468188 0,-0.472471 0.02227,-0.02227 0.07222,0.02227 0.09449,0 0.02227,-0.02227 -0.02227,-0.07222 0,-0.09449 0.02227,-0.02227 0.07222,0.02227 0.09449,0 0.04454,-0.04454 -0.04455,-0.144444 0,-0.188989 0.02227,-0.02227 0.07222,0.02227 0.09449,0 0.04454,-0.04455 -0.04454,-0.144443 0,-0.188988 0.04454,-0.04455 0.144443,0.04454 0.188988,0 0.02227,-0.02227 -0.01409,-0.06632 0,-0.09449 0.196631,-0.393261 -0.0065,0.101018 0.188988,-0.09449 0.04454,-0.04455 -0.04454,-0.144443 0,-0.188988 0.02227,-0.02227 0.06632,0.01409 0.09449,0 0.03984,-0.01992 0.05465,-0.07457 0.09449,-0.09449 0.05635,-0.02817 0.144443,0.04455 0.188988,0 0.04454,-0.04454 -0.04454,-0.144443 0,-0.188988 0.04454,-0.04455 0.144443,0.04454 0.188988,0 0.02227,-0.02227 -0.02227,-0.07222 0,-0.09449 0.04454,-0.04454 0.132643,0.02817 0.188988,0 0.03984,-0.01992 0.05465,-0.07457 0.09449,-0.09449 0.02817,-0.01409 0.06632,0.01409 0.09449,0 0.03984,-0.01992 0.05465,-0.07457 0.09449,-0.09449 0.02817,-0.01409 0.07222,0.02227 0.09449,0 0.02227,-0.02227 -0.02817,-0.08041 0,-0.09449 0.07454,-0.08452 0.198964,0.04226 0.283482,0 0.03984,-0.01992 0.05465,-0.07457 0.09449,-0.09449 0.02817,-0.01409 0.07222,0.02227 0.09449,0 0.02227,-0.02227 -0.02227,-0.07222 0,-0.09449 0.04454,-0.04455 0.144443,0.04454 0.188988,0 0.02227,-0.02227 -0.02227,-0.07222 0,-0.09449 0.04454,-0.04454 0.132643,0.02817 0.188988,0 0.03984,-0.01992 0.05465,-0.07457 0.09449,-0.0945 0.05635,-0.02817 0.132643,0.02817 0.188988,0 0.03984,-0.01992 0.05465,-0.07457 0.09449,-0.09449 0.05635,-0.02817 0.144443,0.04454 0.188988,0 0.02227,-0.02227 -0.02227,-0.07222 0,-0.09449 0.04725,-0.04725 0.236235,0.04725 0.283482,0 0.02228,-0.02227 -0.02227,-0.07222 0,-0.0945 0.02273,-0.02274 0.355238,0.02274 0.377976,0 0.02228,-0.02227 -0.02228,-0.07222 0,-0.09449 0.02926,-0.02926 0.443212,0.02926 0.472472,0 0.02228,-0.02227 -0.02228,-0.07222 0,-0.09449 0.02228,-0.02227 0.06299,0 0.09449,0 0.251984,0 0.503968,0 0.755952,0 0.409474,0 0.818949,0 1.228423,0 0.0315,0 0.063,0 0.09449,0 0.0315,0 0.07222,-0.02227 0.09449,0 0.02228,0.02227 -0.02228,0.07222 0,0.09449 0.04454,0.04455 0.132643,-0.02817 0.188989,0 0.03984,0.01992 0.05465,0.07457 0.09449,0.09449 0.02817,0.01409 0.07222,-0.02227 0.0945,0 0.02228,0.02227 -0.02228,0.07222 0,0.0945 0.02228,0.02227 0.07222,-0.02227 0.09449,0 0.02228,0.02227 -0.02228,0.07222 0,0.09449 0.02228,0.02227 0.07222,-0.02227 0.09449,0 0,0.251985 -0.0315,-0.0315 0.09449,0.09449 0.02228,0.02227 -0.02228,0.07222 0,0.0945 0.02228,0.02227 0.07222,-0.02227 0.0945,0 0.02228,0.02227 -0.02228,0.07222 0,0.09449 0.02228,0.02227 0.06632,-0.01409 0.09449,0 0.03984,0.01992 0.05465,0.07457 0.09449,0.09449 0.02817,0.01409 0.07222,-0.02227 0.0945,0 0.02228,0.02227 -0.02228,0.07222 0,0.09449 0.02228,0.02227 0.07222,-0.02227 0.09449,0 0.02228,0.02227 -0.02228,0.07222 0,0.09449 0.02228,0.02227 0.07222,-0.02227 0.09449,0 0.04454,0.04455 -0.04454,0.144443 0,0.188988 0.04454,0.04454 0.144444,-0.04454 0.188989,0 0.02228,0.02227 -0.01408,0.06632 0,0.09449 0.196631,0.393261 -0.0065,-0.101018 0.188987,0.09449 0.02228,0.02227 -0.02228,0.07222 0,0.09449 0.251984,0 -0.0315,-0.0315 0.0945,0.09449 0.02228,0.02227 0.07222,-0.02227 0.09449,0 0.02228,0.02227 -0.02228,0.07222 0,0.09449 0.02228,0.02227 0.07222,-0.02227 0.09449,0 0.02228,0.02227 -0.02228,0.07222 0,0.09449 0.02228,0.02227 0.07222,-0.02227 0.09449,0 0.02228,0.02227 -0.02228,0.07222 0,0.09449 0.02228,0.02227 0.07222,-0.02227 0.0945,0 0.02228,0.02227 -0.02228,0.07222 0,0.09449 0.02228,0.02227 0.07222,-0.02227 0.09449,0 0,0.251984 -0.0315,-0.0315 0.09449,0.09449 0.02228,0.02227 -0.02817,0.08041 0,0.09449 0.05635,0.02817 0.132644,-0.02817 0.188989,0 0.02817,0.01409 -0.02228,0.07222 0,0.09449 0.02228,0.02227 0.07222,-0.02227 0.09449,0 0.02228,0.02227 -0.02228,0.07222 0,0.0945 0.02228,0.02227 0.07222,-0.02227 0.09449,0 0.02228,0.02227 -0.02228,0.07222 0,0.09449 0.02228,0.02227 0.07222,-0.02227 0.0945,0 0.195511,0.195512 -0.298768,-0.0076 0.09449,0.188989 0.02817,0.01409 0.07222,-0.02227 0.09449,0 0.04454,0.04455 -0.04455,0.144443 0,0.188988 0.02228,0.02227 0.07222,-0.02227 0.0945,0 0.02228,0.02227 -0.02228,0.07222 0,0.09449 0.02228,0.02227 0.07222,-0.02227 0.09449,0 0.0038,0.0038 0,0.343274 0,0.377976 0,0.0315 -0.02817,0.08041 0,0.09449 0.05635,0.02817 0.132643,-0.02817 0.188986,0 0.02817,0.01409 0,0.063 0,0.09449 0,0.063 0,0.125992 0,0.188988 0,0.251984 -0.0315,-0.0315 0.0945,0.09449 0.04725,0.04725 -0.04725,0.236235 0,0.283482 0.02228,0.02227 0.07222,-0.02227 0.09449,0 0.02228,0.02227 0,0.125992 0,0.09449 0,-0.430163 -0.04455,-0.0054 0.09449,-0.283482 0.01408,-0.02817 -0.01408,-0.06632 0,-0.09449 0.01992,-0.03984 0.07457,-0.05465 0.0945,-0.09449 0.01408,-0.02817 -0.01408,-0.06632 0,-0.09449 0.01992,-0.03984 0.07457,-0.05465 0.09449,-0.09449 0.01408,-0.02817 -0.02228,-0.07222 0,-0.09449 0.02228,-0.02227 0.07222,0.02227 0.09449,0 0.04455,-0.04454 -0.04454,-0.144443 0,-0.188988 0.02228,-0.02227 0.07222,0.02227 0.09449,0 0.02228,-0.02227 -0.01408,-0.06632 0,-0.09449 0.01992,-0.03984 0.07458,-0.05465 0.0945,-0.09449 0.02817,-0.05635 -0.04455,-0.144443 0,-0.188988 0.02228,-0.02227 0.07222,0.02227 0.09449,0 0.02228,-0.02227 -0.02228,-0.07222 0,-0.09449 0.02228,-0.02227 0.07222,0.02227 0.09449,0 0.02228,-0.02227 -0.02228,-0.07222 0,-0.09449 0.02228,-0.02227 0.07222,0.02227 0.0945,0 0.02228,-0.02227 -0.02228,-0.07222 0,-0.0945 0.195511,-0.195511 -0.0076,0.298768 0.188987,-0.09449 0,-0.251984 -0.0315,0.0315 0.09449,-0.09449 0.02228,-0.02227 -0.02228,-0.07222 0,-0.0945 0.02228,-0.02227 0.07222,0.02227 0.0945,0 0.02228,-0.02227 -0.02228,-0.07222 0,-0.09449 0.02228,-0.02227 0.06632,0.01409 0.09449,0 0.03984,-0.01992 0.05465,-0.07457 0.09449,-0.09449 0.02817,-0.01409 0.07222,0.02227 0.0945,0 0.02228,-0.02227 -0.02228,-0.07222 0,-0.09449 0.04454,-0.04455 0.144442,0.04454 0.188987,0 0.02228,-0.02227 -0.02228,-0.07222 0,-0.09449 0.02228,-0.02227 0.063,0 0.09449,0 0,-0.0315 -0.02228,-0.07222 0,-0.09449 0.02228,-0.02227 0.06632,0.01409 0.0945,0 0.03984,-0.01992 0.05465,-0.07457 0.09449,-0.09449 0.02817,-0.01409 0.07222,0.02227 0.09449,0 0.02228,-0.02227 -0.02228,-0.07222 0,-0.09449 0.02228,-0.02227 0.06632,0.01409 0.0945,0 0.03984,-0.01992 0.05465,-0.07457 0.09449,-0.09449 0.02817,-0.01409 0.07222,0.02227 0.09449,0 0.02228,-0.02227 -0.02228,-0.07222 0,-0.09449 0.04455,-0.04454 0.144444,0.04454 0.18899,0 0.02228,-0.02227 -0.02228,-0.07222 0,-0.09449 0.04725,-0.04725 0.236233,0.04725 0.283482,0 0.02228,-0.02227 -0.02228,-0.07222 0,-0.09449 0.02228,-0.02227 0.07222,0.02227 0.09449,0 0.02228,-0.02227 -0.02228,-0.07222 0,-0.09449 0.04455,-0.04455 0.144444,0.04454 0.188987,0 0.02228,-0.02227 0,-0.063 0,-0.09449 0.0315,0 0.07222,0.02227 0.0945,0 0.02228,-0.02227 -0.02228,-0.07222 0,-0.09449 0.04454,-0.04455 0.144441,0.04454 0.188986,0 0,-0.251984 -0.0315,0.0315 0.0945,-0.09449 0.02228,-0.02227 -0.02228,-0.07222 0,-0.09449 0.04725,-0.04725 0.236234,0.04725 0.28348,0 0.02228,-0.02227 -0.02228,-0.07222 0,-0.09449 0.02228,-0.02227 0.063,0 0.0945,0 0.0315,0 0.063,0 0.09449,0 0.0315,0 0.063,0 0.09449,0 0.0315,0 0.07222,0.02227 0.0945,0 0.02228,-0.02227 -0.02228,-0.07222 0,-0.0945 0.02273,-0.02274 0.355237,0.02274 0.377976,0 0.02228,-0.02227 -0.02228,-0.07222 0,-0.09449 0.02228,-0.02227 0.06299,0 0.09449,0 0.188989,0 0.377976,0 0.566965,0 0.314978,0 0.62996,0 0.944941,0 0.04941,0 0.353128,-0.01242 0.377976,0 0.03984,0.01992 0.05465,0.07457 0.09449,0.09449 0.05939,0.0297 0.318585,-0.02969 0.377976,0 0.03984,0.01992 0.05465,0.07457 0.09449,0.0945 0.05635,0.02817 0.132643,-0.02817 0.188989,0 0.03984,0.01992 0.05465,0.07457 0.09449,0.09449 0.05635,0.02817 0.144444,-0.04455 0.18899,0 0.02228,0.02227 -0.02228,0.07222 0,0.09449 0.02228,0.02227 0.06632,-0.01409 0.09449,0 0.03984,0.01992 0.05465,0.07457 0.09449,0.09449 0.02817,0.01409 0.07222,-0.02227 0.0945,0 0.02228,0.02227 -0.02228,0.07222 0,0.09449 0.04455,0.04455 0.144441,-0.04454 0.188987,0 0,0.251984 -0.0315,-0.0315 0.0945,0.09449 0.02228,0.02227 -0.02228,0.07222 0,0.09449 0.02228,0.02227 0.06632,-0.01409 0.09449,0 0.03984,0.01992 0.05465,0.07457 0.09449,0.09449 0.05635,0.02817 0.144444,-0.04455 0.188989,0 0,0.251984 -0.0315,-0.0315 0.09449,0.09449 0.02228,0.02227 -0.02228,0.07222 0,0.09449 0.04454,0.04455 0.144444,-0.04454 0.188989,0 0.02228,0.02227 -0.02228,0.07222 0,0.09449 0.04454,0.04454 0.144441,-0.04454 0.188987,0 0.02228,0.02227 -0.02228,0.07222 0,0.09449 0.02228,0.02227 0.07222,-0.02227 0.09449,0 0.02228,0.02227 -0.02228,0.07222 0,0.09449 0.02228,0.02227 0.06632,-0.01409 0.0945,0 0.393261,0.196631 -0.101018,-0.0065 0.09449,0.188988 0.02228,0.02227 0.07222,-0.02227 0.09449,0 0.02228,0.02227 -0.02228,0.07222 0,0.09449 0.02228,0.02227 0.06632,-0.01409 0.0945,0 0.393261,0.196631 -0.101018,-0.0065 0.09449,0.188988 0.02228,0.02227 0.06299,0 0.09449,0 0,0.0315 -0.02228,0.07222 0,0.0945 0.02228,0.02227 0.07222,-0.02227 0.09449,0 0.195514,0.195511 -0.298767,-0.0076 0.0945,0.188987 0.02817,0.01409 0.07222,-0.02227 0.09449,0 0.04455,0.04455 -0.02817,0.132643 0,0.188989 0.01992,0.03984 0.07457,0.05465 0.09449,0.09449 0.01408,0.02817 -0.02228,0.07222 0,0.09449 0.02228,0.02227 0.07222,-0.02227 0.0945,0 0.02228,0.02227 0,0.063 0,0.09449 0,0.0315 0,0.063 0,0.09449 0,0.251984 -0.0315,-0.0315 0.09449,0.09449 0.02228,0.02227 0,0.063 0,0.09449 0,0.0315 0,0.063 0,0.09449 0,0.0347 -0.0038,0.374174 0,0.377976 0.02228,0.02227 0.07222,-0.02227 0.09449,0 0.02228,0.02227 0,0.063 0,0.09449 0,0.15749 0,0.31498 0,0.472471 0,0.0315 -0.02228,0.07222 0,0.09449 0.02228,0.02227 0.07222,-0.02227 0.09449,0 0.02228,0.02227 0,0.063 0,0.09449 0,0.0315 0,0.063 0,0.09449 0,0.377977 0,0.755953 0,1.133929 0,0.0315 0,0.063 0,0.09449 0,0.0315 -0.02228,0.07222 0,0.09449 0.02228,0.02227 0.07222,-0.02227 0.0945,0 0.02228,0.02227 0,0.063 0,0.09449 0,0.0315 0,0.063 0,0.09449 0,0.346479 0,0.692956 0,1.039435 0,0.188988 0,0.377976 0,0.566964 0,0.04256 0.01437,0.254724 0,0.283482 -0.01992,0.03984 -0.07457,0.05465 -0.0945,0.09449 -0.02969,0.05939 0.0297,0.318585 0,0.377976 -0.01992,0.03984 -0.07457,0.05465 -0.09449,0.09449 -0.0378,0.0756 0.0378,0.207887 0,0.283483 -0.01992,0.03984 -0.07457,0.05465 -0.09449,0.09449 -0.02817,0.05634 0.04454,0.144443 0,0.188988 -0.02228,0.02227 -0.07222,-0.02227 -0.09449,0 -0.04455,0.04454 0.04454,0.144443 0,0.188988 -0.02228,0.02227 -0.07222,-0.02227 -0.0945,0 -0.02228,0.02227 0.01408,0.06632 0,0.09449 -0.01992,0.03984 -0.07457,0.05465 -0.09449,0.09449 -0.02817,0.05635 0.02817,0.132643 0,0.188988 -0.01992,0.03984 -0.07457,0.05465 -0.09449,0.09449 -0.01408,0.02817 0.02228,0.07222 0,0.09449 -0.02228,0.02227 -0.07222,-0.02227 -0.0945,0 -0.02228,0.02227 0.02228,0.07222 0,0.09449 -0.02228,0.02227 -0.07222,-0.02227 -0.09449,0 -0.02228,0.02227 0.01408,0.06632 0,0.09449 -0.01992,0.03984 -0.07457,0.05465 -0.09449,0.09449 -0.01408,0.02817 0.01408,0.06632 0,0.09449 -0.0567,0.113393 -0.226785,0.17009 -0.283483,0.283482 -0.01408,0.02817 0.01408,0.06632 0,0.09449 -0.01992,0.03984 -0.07457,0.05465 -0.09449,0.09449 -0.01408,0.02817 0.02228,0.07222 0,0.09449 -0.02228,0.02227 -0.07222,-0.02227 -0.0945,0 -0.02228,0.02227 0.01408,0.06632 0,0.09449 -0.01992,0.03984 -0.063,0.063 -0.09449,0.09449 -0.0028,0.0028 -0.358892,0.339809 -0.377976,0.377976 0,0.251984 0.0315,-0.0315 -0.09449,0.09449 -0.02228,0.02227 0.02228,0.07222 0,0.09449 -0.02228,0.02227 -0.07222,-0.02227 -0.0945,0 -0.02228,0.02227 0.02228,0.07222 0,0.09449 -0.02228,0.02227 -0.07222,-0.02227 -0.09449,0 -0.04454,0.04455 0.02817,0.132643 0,0.188988 -0.19663,0.393262 0.0065,-0.101017 -0.188986,0.09449 -0.195514,0.195512 0.298767,-0.0076 -0.0945,0.188988 -0.02817,0.01409 -0.07222,-0.02227 -0.09449,0 -0.02228,0.02227 0,0.063 0,0.09449 -0.06299,0.063 -0.11486,0.13957 -0.188989,0.188988 -0.02622,0.01747 -0.07222,-0.02227 -0.09449,0 -0.04725,0.04725 0.04725,0.236235 0,0.283483 -0.02228,0.02227 -0.07222,-0.02227 -0.09449,0 -0.02228,0.02227 0.02228,0.07222 0,0.09449 -0.02228,0.02227 -0.07222,-0.02227 -0.09449,0 -0.02228,0.02227 0.02228,0.07222 0,0.09449 -0.02228,0.02227 -0.07222,-0.02227 -0.0945,0 -0.195511,0.195511 0.298768,-0.0076 -0.09449,0.188988 -0.02817,0.01409 -0.07222,-0.02227 -0.09449,0 -0.02228,0.02227 0.01408,0.06632 0,0.09449 -0.03984,0.07968 -0.149146,0.109304 -0.188989,0.188988 -0.01408,0.02817 0.02228,0.07222 0,0.09449 -0.02228,0.02227 -0.06632,-0.01409 -0.09449,0 -0.03984,0.01992 -0.05465,0.07457 -0.09449,0.09449 -0.02817,0.01409 -0.07222,-0.02227 -0.0945,0 -0.02228,0.02227 0.02228,0.07222 0,0.09449 -0.063,0.0315 -0.125992,0.063 -0.188986,0.09449 0,0.0315 0.02228,0.07222 0,0.09449 -0.02228,0.02227 -0.07222,-0.02227 -0.0945,0 -0.195512,0.195512 0.298767,-0.0076 -0.09449,0.188988 -0.02817,0.01409 -0.07222,-0.02227 -0.09449,0 -0.02228,0.02227 0.01408,0.06632 0,0.09449 -0.01992,0.03984 -0.063,0.063 -0.09449,0.09449 -0.0315,0.0315 -0.05465,0.07457 -0.0945,0.09449 -0.251984,0 0.0315,-0.0315 -0.09449,0.09449 -0.02228,0.02227 -0.07222,-0.02227 -0.09449,0 -0.02228,0.02227 0.02228,0.07222 0,0.09449 -0.02228,0.02227 -0.07222,-0.02227 -0.0945,0 -0.02228,0.02227 0.02228,0.07222 0,0.09449 -0.02228,0.02227 -0.07222,-0.02227 -0.09449,0 -0.02228,0.02227 0.01408,0.06632 0,0.09449 -0.05669,0.113392 -0.226785,0.170089 -0.283483,0.283482 -0.01407,0.02817 0.02228,0.07222 0,0.09449 -0.02228,0.02227 -0.08041,-0.02817 -0.09449,0 -0.02817,0.05635 0.01992,0.129224 0,0.188988 -0.02817,0.08452 -0.149145,0.109303 -0.188989,0.188988 -0.01408,0.02817 0.02228,0.07222 0,0.09449 -0.02228,0.02227 -0.07222,-0.02227 -0.09449,0 -0.02228,0.02227 0.02228,0.07222 0,0.09449 -0.02228,0.02227 -0.07222,-0.02227 -0.09449,0 -0.02228,0.02227 0.02228,0.07222 0,0.09449 -0.02228,0.02227 -0.07222,-0.02227 -0.09449,0 -0.04454,0.04454 0.02817,0.132643 0,0.188988 -0.01992,0.03984 -0.07457,0.05465 -0.0945,0.09449 -0.01408,0.02817 0.02228,0.07222 0,0.09449 -0.02228,0.02227 -0.07222,-0.02227 -0.09449,0 -0.04454,0.04454 0.04454,0.144443 0,0.188988 -0.02228,0.02227 -0.07222,-0.02227 -0.09449,0 -0.04455,0.04454 0.02817,0.132643 0,0.188988 -0.01992,0.03984 -0.07457,0.05465 -0.0945,0.09449 -0.01408,0.02817 0.01407,0.06632 0,0.09449 -0.07544,0.150891 -0.113541,0.0381 -0.188987,0.188988 -0.01408,0.02817 0.02228,0.07222 0,0.09449 -0.02228,0.02227 -0.07222,-0.02227 -0.09449,0 -0.02228,0.02227 0.02228,0.07222 0,0.09449 -0.02228,0.02227 -0.07222,-0.02227 -0.0945,0 -0.02228,0.02227 0.02228,0.07222 0,0.09449 -0.02228,0.02227 -0.07222,-0.02227 -0.09449,0 -0.02228,0.02227 0.02228,0.07222 0,0.09449 -0.02228,0.02227 -0.07222,-0.02227 -0.09449,0 -0.02228,0.02227 0.02228,0.07222 0,0.09449 -0.251984,0 0.0315,-0.0315 -0.0945,0.09449 -0.02228,0.02227 -0.06632,-0.01409 -0.09449,0 -0.03984,0.01992 -0.05465,0.07457 -0.09449,0.09449 -0.02817,0.01409 -0.07222,-0.02227 -0.09449,0 -0.02228,0.02227 0.02228,0.07222 0,0.09449 -0.04454,0.04455 -0.144444,-0.04454 -0.188989,0 -0.02228,0.02227 0.01408,0.06632 0,0.09449 -0.19663,0.393261 0.0065,-0.101017 -0.188989,0.09449 -0.02228,0.02227 0.02228,0.07222 0,0.09449 -0.02228,0.02227 -0.07222,-0.02227 -0.09449,0 -0.02228,0.02227 0.02228,0.07222 0,0.09449 -0.06318,0.06318 -0.125804,-0.06318 -0.188987,0 -0.02228,0.02227 0.02817,0.08041 0,0.09449 -0.05635,0.02817 -0.129225,-0.01992 -0.188989,0 -0.04226,0.01409 -0.05465,0.07457 -0.09449,0.09449 -0.02817,0.01409 -0.07222,-0.02227 -0.0945,0 -0.02228,0.02227 0.02228,0.07222 0,0.09449 -0.195512,0.195512 0.0076,-0.298767 -0.188987,0.09449 -0.01408,0.02817 0.02228,0.07222 0,0.09449 -0.110297,0.110298 -0.07869,-0.110297 -0.188989,0 -0.02228,0.02227 0.02228,0.07222 0,0.09449 -0.02228,0.02227 -0.07222,-0.02227 -0.09449,0 -0.02228,0.02227 0.02228,0.07222 0,0.09449 -0.02228,0.02227 -0.07222,-0.02227 -0.09449,0 -0.02228,0.02227 0.02228,0.07222 0,0.0945 -0.04454,0.04454 -0.160816,-0.05635 -0.188989,0 -0.02817,0.05635 0.02817,0.132642 0,0.188988 -0.01408,0.02817 -0.07222,-0.02227 -0.09449,0 -0.02228,0.02227 0.02228,0.07222 0,0.09449 -0.04455,0.04454 -0.144444,-0.04454 -0.18899,0 -0.02228,0.02227 0.02228,0.07222 0,0.09449 -0.02228,0.02227 -0.07222,-0.02227 -0.09449,0 -0.02228,0.02227 0.02228,0.07222 0,0.09449 -0.02926,0.02926 -0.443211,-0.02926 -0.472469,0 -0.02228,0.02227 0.02228,0.07222 0,0.09449 -0.04454,0.04454 -0.132643,-0.02817 -0.188989,0 -0.03984,0.01992 -0.05465,0.07457 -0.09449,0.09449 -0.02817,0.01409 -0.06632,-0.01409 -0.0945,0 -0.03984,0.01992 -0.05465,0.07457 -0.09449,0.09449 -0.05635,0.02817 -0.144444,-0.04454 -0.188986,0 -0.02228,0.02227 0.02228,0.07222 0,0.09449 -0.04454,0.04455 -0.144444,-0.04454 -0.188989,0 -0.02228,0.02227 0.02228,0.07222 0,0.09449 -0.02228,0.02227 -0.06632,-0.01409 -0.09449,0 -0.03984,0.01992 -0.05465,0.07457 -0.0945,0.09449 -0.02817,0.01409 -0.06361,-0.0062 -0.09449,0 -0.127347,0.02547 -0.251984,0.063 -0.377976,0.09449 z"
       id="path217"
       inkscape:connector-curvature="0" />
  </g>
</svg>
